<?xml version="1.0" encoding="UTF-8" standalone="no"?>
<!-- Created with Inkscape (http://www.inkscape.org/) -->

<svg
   version="1.1"
   id="svg1"
   width="1024"
   height="1024"
   viewBox="0 0 1024 1024"
   sodipodi:docname="logo-app.svg"
   inkscape:version="1.4.2 (f4327f4, 2025-05-13)"
   xmlns:inkscape="http://www.inkscape.org/namespaces/inkscape"
   xmlns:sodipodi="http://sodipodi.sourceforge.net/DTD/sodipodi-0.dtd"
   xmlns="http://www.w3.org/2000/svg"
   xmlns:svg="http://www.w3.org/2000/svg">
  <defs
     id="defs1" />
  <sodipodi:namedview
     id="namedview1"
     pagecolor="#ffffff"
     bordercolor="#000000"
     borderopacity="0.25"
     inkscape:showpageshadow="2"
     inkscape:pageopacity="0.0"
     inkscape:pagecheckerboard="0"
     inkscape:deskcolor="#d1d1d1"
     showgrid="false"
     inkscape:zoom="0.39404297"
     inkscape:cx="515.17224"
     inkscape:cy="573.54151"
     inkscape:window-width="958"
     inkscape:window-height="1000"
     inkscape:window-x="2873"
     inkscape:window-y="0"
     inkscape:window-maximized="0"
     inkscape:current-layer="g1" />
  <g
     inkscape:groupmode="layer"
     inkscape:label="Image"
     id="g1">
    <path
       style="fill:#000000"
       d="m 516.49891,745.94976 c -25.2522,-6.11892 -50.28996,-35.56018 -66.36986,-78.04264 -4.43767,-11.72413 -2.60064,-11.07723 -21.83737,-7.68987 -29.0073,5.10784 -54.05547,5.13011 -74.06492,0.0658 -36.36831,-9.20458 -49.66619,-34.63492 -38.4465,-73.52352 5.33419,-18.48885 22.22405,-47.83242 39.35478,-68.37295 3.89893,-4.675 7.08958,-8.9769 7.09034,-9.55977 7.6e-4,-0.58287 -2.07369,-3.49078 -4.6099,-6.46202 -31.18598,-36.53527 -48.14657,-73.1494 -46.08083,-99.47818 2.2218,-28.31789 21.49752,-45.02773 57.09022,-49.49068 18.30948,-2.29581 48.06813,-0.58443 68.32529,3.9293 6.11121,1.36171 8.51814,1.55799 8.80227,0.7178 12.68686,-37.51527 27.14872,-62.96047 45.30826,-79.71854 21.79421,-20.11223 46.80962,-21.78298 69.08415,-4.61406 l 5.41808,4.17619 9.08192,0.0428 c 7.8325,0.0369 9.78675,0.40876 14.20527,2.70267 6.54313,3.39691 12.80074,10.50452 14.95287,16.98396 2.93666,8.84147 1.78176,19.51485 -2.82134,26.07421 -1.14401,1.6302 -1.75695,3.72294 -1.46443,5 1.13061,4.93588 10.64318,29.18586 11.39668,29.05304 0.44708,-0.0788 7.56287,-1.42881 15.81287,-3 14.02572,-2.67117 16.59132,-2.85318 39.5,-2.80221 22.00166,0.0489 25.31578,0.27779 32.5,2.24415 31.99292,8.75665 48.29806,30.58146 44.61109,59.71299 -1.48526,11.73534 -5.48356,24.54752 -11.54297,36.98835 -8.08,16.58939 -16.99119,29.6325 -37.17542,54.41285 l -2.1073,2.58715 9.39445,12 c 24.49609,31.29009 37.93706,57.94701 41.2316,81.77297 3.78613,27.38108 -11.70477,49.57307 -39.36948,56.40002 -6.18926,1.52736 -6.41085,1.69515 -8.10835,6.13999 -2.33126,6.10432 -8.79834,12.95905 -14.93362,15.82877 -7.02082,3.28394 -17.97705,3.28072 -25.0381,-0.007 -5.77859,-2.69087 -13.01681,-10.33146 -13.99153,-14.7693 -0.36243,-1.65014 -1.17903,-3.19254 -1.81467,-3.42757 -0.63563,-0.23502 -7.4557,-1.49882 -15.1557,-2.80843 -15.95932,-2.71436 -15.23946,-2.94031 -18.10345,5.68236 -5.29404,15.93884 -15.64196,35.75297 -25.96688,49.72117 -19.42911,26.28494 -41.34862,37.05738 -64.15752,31.5305 z m 25.68973,-21.26355 c 11.00032,-5.34523 26.85055,-24.20996 36.80061,-43.79959 6.6456,-13.08382 12.22142,-27.81446 11.05864,-29.21553 -0.58631,-0.70646 -1.61703,-1.28447 -2.29048,-1.28447 -2.77659,0 -30.05925,-9.678 -44.03065,-15.61903 -8.25,-3.50813 -15.49078,-6.37899 -16.09063,-6.37969 -0.59984,-7.1e-4 -7.57484,2.84626 -15.5,6.32658 -13.87135,6.09158 -33.66111,13.35066 -42.77874,15.69166 -4.21451,1.08209 -4.35057,1.2377 -3.83894,4.39052 0.29174,1.79777 3.11848,9.01361 6.28165,16.0352 14.57315,32.34942 32.69863,52.71331 50.42666,56.65411 5.62526,1.25045 14.0618,0.0672 19.96188,-2.79976 z m 133.72623,-56.95588 c 6.85379,-3.25234 10.85454,-13.13942 8.36687,-20.67713 -2.5015,-7.5796 -12.54809,-12.94014 -19.87007,-10.60203 -7.46137,2.38263 -12.18491,8.87116 -12.18491,16.73791 0,12.01706 12.64701,19.7806 23.68811,14.54125 z M 414.22676,643.43739 c 13.37836,-2.13674 24.52409,-4.33371 25.24452,-4.97602 0.40949,-0.36509 -0.33613,-4.92389 -1.65694,-10.13066 -3.29206,-12.97769 -7.1864,-33.94738 -9.08954,-48.94409 -1.46686,-11.5588 -1.79004,-12.6504 -4.29217,-14.49748 -12.52454,-9.24567 -46.20587,-38.88556 -46.20587,-40.66163 0,-6.28918 -23.52156,24.01414 -34.27648,44.15911 -10.00009,18.73111 -14.75229,37.06757 -12.61003,48.65609 1.36314,7.37391 2.7004,9.86198 8.0563,14.98933 6.95327,6.65655 16.02265,10.33034 30.33021,12.28603 8.27319,1.13086 35.248,0.59701 44.5,-0.88068 z m 228.45597,-4.95313 c 6.09449,-13.51515 24.7694,-19.66089 38.803,-12.7697 5.18016,2.54371 7.54322,4.73418 13.55122,12.56151 1.83352,2.38874 1.83555,2.38895 6.90564,0.70494 7.35678,-2.44353 15.23014,-8.33609 18.74927,-14.03228 2.92697,-4.73768 3.0341,-5.32404 3.01233,-16.48725 -0.0196,-10.03977 -0.39151,-12.63584 -2.80444,-19.57486 -5.85451,-16.83621 -17.61384,-36.8441 -33.03903,-56.21416 -7.2947,-9.16027 -10.63396,-12.09533 -10.63396,-9.34676 0,1.22637 -24.82865,23.76396 -37,33.58582 -5.225,4.2164 -9.88627,8.03196 -10.35839,8.47903 -0.47211,0.44706 -1.95053,8.35655 -3.28536,17.57663 -2.4539,16.94977 -7.096,40.43662 -9.77548,49.45943 -0.84699,2.85212 -1.07517,5.15445 -0.54342,5.48309 1.06983,0.6612 19.47535,4.23301 22.56078,4.37819 1.51583,0.0713 2.5865,-0.98429 3.85784,-3.80363 z m -167.0925,-10.11775 c 17.86964,-6.17273 27.85716,-10.37628 27.49823,-11.57348 -0.14946,-0.49852 -7.19346,-4.84853 -15.65334,-9.66668 -8.45987,-4.81815 -19.81738,-11.68509 -25.23889,-15.25986 -14.04137,-9.25844 -13.40548,-9.22061 -12.69577,-0.75515 0.60667,7.23633 7.2045,37.38145 8.86973,40.52528 0.50981,0.9625 1.32299,1.75 1.80705,1.75 0.48406,0 7.4199,-2.25905 15.41299,-5.02011 z m 125.24229,-10.66364 c 3.82397,-15.82645 6.90471,-33.13911 6.04925,-33.99457 -0.32003,-0.32003 -7.04228,3.63917 -14.93834,8.79822 -7.89606,5.15906 -20.0458,12.5301 -26.99942,16.3801 -6.95362,3.85 -12.51741,7.42679 -12.36396,7.94841 0.67373,2.29035 42.50561,17.0745 44.03046,15.56117 0.48605,-0.48239 2.38596,-7.09438 4.22201,-14.69333 z M 541.41482,599.767 c 25.87434,-13.91156 65.03324,-38.20659 68.54401,-42.52618 1.82744,-2.24845 3.29514,-52.81737 2.23061,-76.8542 -0.47499,-10.725 -0.8859,-20.04846 -0.91315,-20.7188 -0.12176,-2.99606 -45.61346,-31.25309 -71.5998,-44.47398 l -12.05026,-6.13074 -12.94974,6.84067 c -23.48588,12.40636 -65.92837,38.73987 -69.63337,43.20412 -0.98014,1.181 -1.37351,9.72384 -1.64229,35.66585 -0.3848,37.13983 0.70514,60.53814 2.94822,63.29102 1.67098,2.05075 28.72977,19.86227 41.87771,27.56612 12.29698,7.20524 38.15502,20.71734 39.68806,20.73897 0.65344,0.009 6.72844,-2.96206 13.5,-6.60285 z m -32.02447,-35.9305 c -9.35777,-3.1875 -16.22155,-7.63529 -23.2336,-15.05559 -11.08317,-11.72841 -16.09022,-24.09283 -16.15547,-39.89429 -0.0683,-16.54412 5.52291,-30.59345 16.6826,-41.91917 11.44264,-11.61288 24.00964,-16.86549 40.54288,-16.94563 16.53709,-0.0802 28.36409,4.4425 40.26775,15.39844 26.82474,24.68907 23.82283,69.2751 -6.10573,90.68547 -10.40048,7.44032 -19.83504,10.28909 -33.96364,10.25532 -8.74102,-0.0209 -12.04064,-0.48278 -18.03479,-2.52455 z m -85.62562,-87.24524 c -1.28408,-1.28408 -33.54252,29.3957 -33.53975,31.89839 0.002,1.70867 13.61263,15.24449 26.00178,25.85867 l 7.5,6.42548 0.26425,-31.846 c 0.14534,-17.5153 0.0435,-32.06675 -0.22628,-32.33654 z m 228.96203,43.60899 13,-12.69576 -6,-6.16723 c -7.50548,-7.71467 -26.40642,-24.95064 -27.36085,-24.95064 -0.3913,0 -0.71982,14.14321 -0.73003,31.42937 l -0.0186,31.42936 4.05472,-3.17467 c 2.23014,-1.74607 9.90476,-8.88776 17.05476,-15.87043 z M 389.66788,481.47429 c 7.18238,-7.10178 16.20888,-15.52188 20.05888,-18.71134 3.85,-3.18946 9.28582,-7.6982 12.0796,-10.01942 l 5.07959,-4.2204 1.27229,-10.31825 c 1.65082,-13.38822 5.4689,-34.5026 8.69784,-48.09998 1.40817,-5.92995 2.33996,-11.35594 2.07065,-12.05777 -1.20578,-3.1422 -35.36964,-7.05599 -55.69997,-6.38096 -22.99601,0.76353 -34.23459,4.18282 -44.11027,13.42036 -15.5418,14.53752 -10.36251,43.71473 14.29705,80.54159 6.15437,9.191 21.51454,28.7585 22.57495,28.7585 0.34128,0 6.497,-5.81055 13.67939,-12.91233 z m 296.15055,4.66233 c 23.07282,-27.73705 35.7749,-51.6328 38.52066,-72.46685 2.09596,-15.90354 -1.91521,-25.96771 -13.27631,-33.31074 -11.90907,-7.6972 -26.60431,-10.53083 -50.30323,-9.69978 -13.94897,0.48914 -40.73342,3.99726 -43.48018,5.69486 -0.89596,0.55373 -0.30023,4.78172 2.37032,16.82276 3.10373,13.9941 7.03963,36.33637 9.05041,51.37497 0.60761,4.54429 0.93929,4.92012 12.7967,14.5 6.69511,5.40913 17.81075,15.33058 24.70144,22.04767 6.89069,6.71708 12.76721,12.22958 13.05893,12.25 0.29173,0.0204 3.2443,-3.22539 6.56126,-7.21289 z M 462.87948,423.76116 c 6.684,-4.331 18.70703,-11.47455 26.71785,-15.87455 8.01082,-4.4 14.57959,-8.35349 14.59728,-8.78554 0.0586,-1.43233 -22.56617,-10.36942 -37.30315,-14.73524 -6.41027,-1.89904 -7.9866,-2.07641 -8.66716,-0.97523 -1.43025,2.3142 -8.04599,32.84943 -9.51068,43.89698 -0.57773,4.35757 -0.45244,5.29927 0.64854,4.87455 0.75053,-0.28953 6.83332,-4.06997 13.51732,-8.40097 z m 143.87129,2.87545 c -1.45964,-11.88075 -8.06786,-41.78619 -9.69739,-43.88544 -0.63947,-0.82382 -3.41261,-0.32722 -10.104,1.80936 -10.28665,3.28457 -33.75541,12.51816 -35.07214,13.79885 -0.46724,0.45445 1.10776,1.94094 3.5,3.3033 2.39223,1.36236 10.87452,6.18428 18.84952,10.71537 7.975,4.53109 18.55,10.87819 23.5,14.10467 4.95,3.22647 9.16435,5.87477 9.36522,5.8851 0.20088,0.0103 0.0473,-2.56871 -0.34121,-5.73121 z m -71.39885,-42.60746 c 9.99819,-4.55179 34.35116,-13.87289 46.28,-17.71369 11.33483,-3.64953 10.91688,-2.07021 4.74461,-17.92884 l -3.69745,-9.5 -7.97616,-0.60061 c -13.04637,-0.98241 -21.8758,-6.8611 -26.80744,-17.84858 -2.98912,-6.65965 -2.88214,-16.81652 0.25752,-24.44889 l 2.42625,-5.89807 -2.42625,-1.99762 c -1.33443,-1.09869 -4.83468,-3.11108 -7.77833,-4.47197 -4.67908,-2.16321 -6.38822,-2.41996 -13.5921,-2.04186 -6.77418,0.35556 -9.1131,0.94115 -13.14792,3.29182 -12.56054,7.31775 -26.49168,24.94716 -36.7672,46.52773 -6.21583,13.05443 -12.95494,30.67056 -12.20027,31.89164 0.27793,0.4497 3.33003,1.60046 6.78245,2.55724 9.01929,2.49956 33.84318,11.78657 45.39146,16.98167 5.43712,2.44594 10.16699,4.47199 10.51083,4.50233 0.34383,0.0303 3.94383,-1.45569 8,-3.3023 z m 45.64331,-60.19026 c 7.48062,-3.1256 11.23153,-8.55407 11.23153,-16.25473 0,-8.9651 -7.23244,-16.19754 -16.19754,-16.19754 -18.95463,0 -24.04083,26.22648 -6.30246,32.49799 5.18371,1.83273 6.78829,1.82622 11.26847,-0.0457 z"
       id="path1" />
  </g>
</svg>
